<svg width="32" height="34" viewBox="0 0 32 34" fill="none" xmlns="http://www.w3.org/2000/svg">
<path d="M19.3335 11.6667H18.6669H12.3802C11.6669 11.6667 11.0602 12.1134 10.9202 12.74L10.0269 16.74C9.84687 17.5667 10.5469 18.3334 11.4869 18.3334H14.3069L13.2935 21.6267C13.0802 22.3134 13.6402 23 14.4135 23C14.8002 23 15.1735 22.84 15.4269 22.5667L19.3335 18.3334H22.0002V11.6667H19.3335ZM14.9335 22.1134C14.8069 22.2534 14.6135 22.3334 14.4135 22.3334C14.2402 22.3334 14.0802 22.26 13.9935 22.1334C13.9469 22.0667 13.8935 21.96 13.9335 21.82L14.9469 18.5267L15.2135 17.6667H14.3069H11.4869C11.2135 17.6667 10.9535 17.5534 10.8002 17.36C10.7202 17.26 10.6335 17.0934 10.6802 16.88L11.5735 12.88C11.6402 12.5667 11.9802 12.3334 12.3802 12.3334H18.6669V18.0734L14.9335 22.1134ZM21.3335 17.6667H19.3335V12.3334H21.3335V17.6667Z" fill="white"/>
</svg>
