<svg width="36" height="36" viewBox="0 0 36 36" fill="none" xmlns="http://www.w3.org/2000/svg">
<path d="M13.5 18C13.5 18.83 12.83 19.5 12 19.5C11.17 19.5 10.5 18.83 10.5 18C10.5 17.17 11.17 16.5 12 16.5C12.83 16.5 13.5 17.17 13.5 18ZM18 16.5C17.17 16.5 16.5 17.17 16.5 18C16.5 18.83 17.17 19.5 18 19.5C18.83 19.5 19.5 18.83 19.5 18C19.5 17.17 18.83 16.5 18 16.5ZM24 16.5C23.17 16.5 22.5 17.17 22.5 18C22.5 18.83 23.17 19.5 24 19.5C24.83 19.5 25.5 18.83 25.5 18C25.5 17.17 24.83 16.5 24 16.5Z" fill="white"/>
</svg>
