<svg width="36" height="36" viewBox="0 0 36 36" fill="none" xmlns="http://www.w3.org/2000/svg">
<path d="M23.0001 10H22.0001H12.5701C11.5001 10 10.5901 10.67 10.3801 11.61L9.04007 17.61C8.77007 18.85 9.82007 20 11.2301 20H15.4601L13.9401 24.94C13.6201 25.97 14.4601 27 15.6201 27C16.2001 27 16.7601 26.76 17.1401 26.35L23.0001 20H27.0001V10H23.0001ZM16.4001 25.67C16.2101 25.88 15.9201 26 15.6201 26C15.3601 26 15.1201 25.89 14.9901 25.7C14.9201 25.6 14.8401 25.44 14.9001 25.23L16.4201 20.29L16.8201 19H15.4601H11.2301C10.8201 19 10.4301 18.83 10.2001 18.54C10.0801 18.39 9.95007 18.14 10.0201 17.82L11.3601 11.82C11.4601 11.35 11.9701 11 12.5701 11H22.0001V19.61L16.4001 25.67ZM26.0001 19H23.0001V11H26.0001V19Z" fill="white"/>
</svg>
