<svg width="32" height="32" viewBox="0 0 32 32" fill="none" xmlns="http://www.w3.org/2000/svg">
<path d="M20.5133 15.3334H17.6933L18.7067 12.04C18.92 11.3534 18.36 10.6667 17.5867 10.6667C17.2 10.6667 16.8267 10.8267 16.5733 11.1L12.6667 15.3334H10V22H12.6667H13.3333H19.62C20.3267 22 20.94 21.5534 21.08 20.9267L21.9733 16.9267C22.1533 16.1 21.4533 15.3334 20.5133 15.3334ZM12.6667 21.3334H10.6667V16H12.6667V21.3334ZM21.32 16.78L20.4267 20.78C20.36 21.1 20.02 21.3334 19.62 21.3334H13.3333V15.5934L17.0667 11.5534C17.1933 11.4134 17.3867 11.3334 17.5867 11.3334C17.76 11.3334 17.92 11.4067 18.0067 11.5334C18.0533 11.6 18.1067 11.7067 18.0667 11.8467L17.0533 15.14L16.7867 16H17.6867H20.5067C20.78 16 21.04 16.1134 21.1933 16.3067C21.28 16.4067 21.3667 16.5734 21.32 16.78Z" fill="white"/>
</svg>
